#N canvas 388 49 613 632 12;
#X obj 199 45 tgl 15 0 empty empty empty 17 7 0 10 -262144 -1 -1 0
1;
#X msg 113 89 \; pd dsp \$1;
#X obj 36 327 hsl 128 15 0 500 0 0 empty empty Delay_Time_(milleseconds)
-2 -8 0 10 -262144 -1 -1 0 1;
#X obj 35 392 s delayTime;
#X floatatom 35 358 5 0 0 0 - - -, f 5;
#N canvas 9 23 878 786 Music 0;
#X obj 312 634 phasor~;
#X floatatom 312 599 5 0 0 0 - - -, f 5;
#X obj 311 676 *~;
#X obj 312 563 mtof;
#X obj 314 525 + 0;
#X obj 272 278 f;
#X obj 315 280 + 1;
#X obj 199 622 vline~;
#X floatatom 472 521 5 0 0 0 - - -, f 5;
#X msg 199 577 1 25 \, 0 25 75;
#X obj 472 468 loadbang;
#X msg 472 495 35;
#X obj 273 318 mod 8;
#X obj 270 349 select 0 1 2 3 4 5 6 7;
#X msg 266 430 1;
#X msg 299 430 6;
#X obj 623 231 f;
#X obj 666 233 + 1;
#X obj 643 266 mod 4;
#X obj 616 319 select 0 1 2 3;
#X obj 621 478 + 0;
#X floatatom 768 423 5 0 0 0 - - -, f 5;
#X obj 768 370 loadbang;
#X msg 768 397 35;
#X floatatom 620 542 5 0 0 0 - - -, f 5;
#X obj 620 511 mtof;
#X obj 683 562 vline~;
#X msg 683 510 1 25 \, 0 25 75;
#X obj 619 631 *~;
#X obj 619 577 osc~;
#X msg 728 368 7;
#X msg 398 431 12;
#X msg 433 431 18;
#X msg 468 432 14;
#X msg 606 368 6;
#X msg 645 368 14;
#X msg 686 368 21;
#X msg 364 430 14;
#X msg 330 430 7;
#X msg 503 432 7;
#X text 104 46 Music Toggle;
#X obj 203 51 inlet;
#X obj 409 714 +~;
#X obj 407 752 outlet~;
#X text 454 712 Mixdown signals;
#X obj 330 32 inlet;
#X text 382 34 Score increases music tempo;
#X obj 311 103 -;
#X text 418 137 Maximum speed is 1/10 of a second;
#N canvas 180 450 690 371 delayLine 0;
#X obj 36 147 delwrite~ del_line 2000;
#X obj 323 121 delread4~ del_line;
#X floatatom 323 92 5 0 0 0 - - -, f 5;
#X obj 308 151 +~;
#X obj 172 36 inlet~;
#X obj 352 262 outlet~;
#X obj 170 195 receive delayFeedback;
#X obj 155 256 *~;
#X floatatom 170 219 5 0 0 0 - - -, f 5;
#X obj 323 61 r delayTime;
#X connect 1 0 3 1;
#X connect 2 0 1 0;
#X connect 3 0 5 0;
#X connect 3 0 7 0;
#X connect 4 0 0 0;
#X connect 4 0 3 0;
#X connect 6 0 8 0;
#X connect 7 0 0 0;
#X connect 8 0 7 1;
#X connect 9 0 2 0;
#X restore 618 666 pd delayLine;
#X obj 203 168 metro 400;
#X obj 329 69 * 5;
#X obj 310 137 clip 100 400;
#X msg 282 64 400;
#X text 717 667 Delay only on Sine;
#X connect 0 0 2 0;
#X connect 1 0 0 0;
#X connect 2 0 42 0;
#X connect 3 0 1 0;
#X connect 4 0 3 0;
#X connect 5 0 6 0;
#X connect 5 0 12 0;
#X connect 6 0 5 1;
#X connect 7 0 2 1;
#X connect 8 0 4 1;
#X connect 9 0 7 0;
#X connect 10 0 11 0;
#X connect 11 0 8 0;
#X connect 12 0 13 0;
#X connect 13 0 14 0;
#X connect 13 1 15 0;
#X connect 13 2 38 0;
#X connect 13 3 37 0;
#X connect 13 4 31 0;
#X connect 13 5 32 0;
#X connect 13 6 33 0;
#X connect 13 7 39 0;
#X connect 14 0 4 0;
#X connect 15 0 4 0;
#X connect 16 0 17 0;
#X connect 16 0 18 0;
#X connect 17 0 16 1;
#X connect 18 0 19 0;
#X connect 19 0 34 0;
#X connect 19 1 35 0;
#X connect 19 2 36 0;
#X connect 19 3 30 0;
#X connect 20 0 25 0;
#X connect 21 0 20 1;
#X connect 22 0 23 0;
#X connect 23 0 21 0;
#X connect 24 0 29 0;
#X connect 25 0 24 0;
#X connect 26 0 28 1;
#X connect 27 0 26 0;
#X connect 28 0 49 0;
#X connect 29 0 28 0;
#X connect 30 0 20 0;
#X connect 31 0 4 0;
#X connect 32 0 4 0;
#X connect 33 0 4 0;
#X connect 34 0 20 0;
#X connect 35 0 20 0;
#X connect 36 0 20 0;
#X connect 37 0 4 0;
#X connect 38 0 4 0;
#X connect 39 0 4 0;
#X connect 41 0 50 0;
#X connect 42 0 43 0;
#X connect 45 0 53 0;
#X connect 45 0 51 0;
#X connect 47 0 52 0;
#X connect 49 0 42 1;
#X connect 50 0 5 0;
#X connect 50 0 9 0;
#X connect 50 0 27 0;
#X connect 50 0 16 0;
#X connect 51 0 47 1;
#X connect 52 0 50 1;
#X connect 53 0 47 0;
#X restore 412 132 pd Music;
#X obj 38 278 hsl 128 15 0 1 0 0 delayFeedback delayFeedback Delay_Feedback
-2 -8 0 10 -262144 -1 -1 0 1;
#X text 148 18 patch on/off switch;
#N canvas 495 23 232 287 DeathSound 0;
#X obj 34 89 noise~;
#X obj 33 125 *~;
#X obj 91 89 line~;
#X msg 92 59 0.5 \, 0 100;
#X obj 32 167 outlet~;
#X obj 37 21 inlet;
#X connect 0 0 1 0;
#X connect 1 0 4 0;
#X connect 2 0 1 1;
#X connect 3 0 2 0;
#X connect 5 0 0 0;
#X connect 5 0 3 0;
#X restore 199 134 pd DeathSound;
#N canvas 495 23 722 484 OSCListen 0;
#X obj 199 166 netreceive -u -b;
#X msg 442 115 listen 0;
#X obj 198 216 oscparse;
#X obj 198 240 list trim;
#X text 262 214 Parse the OSC message;
#X msg 181 112 listen 8000;
#X obj 199 319 route coin;
#X obj 57 317 route die;
#X obj 184 23 inlet;
#X obj 183 56 route 1;
#X obj 441 87 bng 15 250 50 0 empty empty empty 17 7 0 10 -262144 -1
-1;
#X obj 55 351 outlet;
#X obj 199 352 outlet;
#X obj 198 271 route event;
#X obj 350 268 route score;
#X obj 349 352 outlet;
#X obj 489 340 print scoreval;
#X text 272 112 Listen on port 8000;
#X text 247 54 Route on/off messages;
#X text 516 115 Stop listening;
#X text 323 378 Send score value;
#X text 180 378 Bang on coin;
#X text 32 379 Bang on death;
#X connect 0 0 2 0;
#X connect 1 0 0 0;
#X connect 2 0 3 0;
#X connect 3 0 13 0;
#X connect 3 0 14 0;
#X connect 5 0 0 0;
#X connect 6 0 12 0;
#X connect 7 0 11 0;
#X connect 8 0 9 0;
#X connect 9 0 5 0;
#X connect 9 1 10 0;
#X connect 10 0 1 0;
#X connect 13 0 6 0;
#X connect 13 0 7 0;
#X connect 14 0 15 0;
#X connect 14 0 16 0;
#X restore 199 87 pd OSCListen;
#N canvas 494 23 242 341 CoinSound 0;
#X obj 39 234 *~, f 4;
#X obj 39 187 osc~;
#X obj 40 120 mtof;
#X obj 116 187 vline~;
#X msg 115 81 1 25 \, 0 25 75;
#X obj 40 155 nbx 5 14 -1e+37 1e+37 0 0 empty empty empty 0 -8 0 10
-262144 -1 -1 0 256 0;
#X msg 40 79 77;
#X obj 40 272 outlet~;
#X obj 39 28 inlet;
#X connect 0 0 7 0;
#X connect 1 0 0 0;
#X connect 2 0 5 0;
#X connect 3 0 0 1;
#X connect 4 0 3 0;
#X connect 5 0 1 0;
#X connect 6 0 2 0;
#X connect 8 0 6 0;
#X connect 8 0 4 0;
#X restore 311 132 pd CoinSound;
#X obj 271 305 dac~;
#X obj 249 175 +~;
#X obj 271 223 +~;
#X text 34 426 Delay can be used to make the game's music sound different
(sinewave patch).;
#X text 310 221 Mixdown signals;
#X connect 0 0 1 0;
#X connect 0 0 5 0;
#X connect 0 0 9 0;
#X connect 2 0 4 0;
#X connect 4 0 3 0;
#X connect 5 0 13 1;
#X connect 8 0 12 0;
#X connect 9 0 8 0;
#X connect 9 1 10 0;
#X connect 9 2 5 1;
#X connect 10 0 12 1;
#X connect 12 0 13 0;
#X connect 13 0 11 0;
#X connect 13 0 11 1;
